<?xml version="1.0" encoding="utf-8"?>
<!-- Generator: Adobe Illustrator 26.1.0, SVG Export Plug-In . SVG Version: 6.00 Build 0)  -->
<svg version="1.1" xmlns="http://www.w3.org/2000/svg" xmlns:xlink="http://www.w3.org/1999/xlink" x="0px" y="0px"
	 viewBox="0 0 211.8 200.3" style="enable-background:new 0 0 211.8 200.3;" xml:space="preserve">
<style type="text/css">
	.st0{fill:#F1F1F1;}
	.st1{fill:#FFFFFF;}
	.st2{fill:none;}
	.st3{fill:#6B6C6F;}
	.st4{fill:#97989B;}
	.st5{fill:#B9BBBD;}
	.st6{fill:#D0D2D2;}
	.st7{fill:#414042;}
	.st8{clip-path:url(#SVGID_00000111872393481830504290000006097107113171572631_);}
	.st9{clip-path:url(#SVGID_00000030465381627338827640000013905398220143656846_);}
	.st10{clip-path:url(#SVGID_00000034780469469903269670000002320760344455259819_);}
	.st11{opacity:0.6;}
	.st12{clip-path:url(#SVGID_00000025406845876486577710000008691524045873193386_);}
	.st13{clip-path:url(#SVGID_00000057120142467905071560000004052596211118882944_);}
	.st14{clip-path:url(#SVGID_00000016047809545324472070000003735513114667489173_);}
	.st15{fill:#F1F1F1;stroke:#F1F1F1;}
</style>
<g id="Capa_1">
</g>
<g id="Capa_2">
	<g id="Grupo_72655" transform="translate(0 -0.005)">
		<path id="Trazado_39" class="st1" d="M47.4,196.6v0.5c0,1.3-0.1,1.9-0.6,2.4c-0.5,0.5-1.2,0.8-2,0.8c-0.6,0-2.5,0.1-4,0.1
			c-4,0-4.9-0.2-5.7-1c-0.7-0.7-0.9-1.6-0.9-4.6c0-3.4,0.2-4.3,1.3-5c0.8-0.5,1.7-0.6,6.3-0.6c2.7,0,3.7,0.1,4.4,0.6
			c0.7,0.5,1,1.2,1,2.9H46v-0.3c0-1.9-0.5-2.1-5.1-2.1c-5.3,0-5.3,0-5.3,4.5c0,2.5,0.1,3.3,0.6,3.8c0.5,0.5,1.4,0.7,4.4,0.7
			c4.9,0,5.4-0.2,5.4-2v-0.6H47.4z"/>
		<path id="Trazado_40" class="st1" d="M61.9,189.3h10.9v1.1h-9.6v3.7h9.2v1h-9.2v4.1h9.7v1.1h-11V189.3z"/>
		<path id="Trazado_41" class="st1" d="M87.2,189.3h2.1l10.3,10v-10h1.3v11h-2.1l-10.3-10v10h-1.3L87.2,189.3z"/>
		<path id="Trazado_42" class="st1" d="M120.3,190.4h-5.6v-1.1h12.4v1.1h-5.6v9.9h-1.3L120.3,190.4z"/>
		<path id="Trazado_43" class="st1" d="M140.9,189.3h10.9v1.1h-9.6v3.7h9.2v1h-9.2v4.1h9.7v1.1h-11V189.3z"/>
		<path id="Trazado_44" class="st1" d="M166.2,189.3h9c1.7,0,2.4,0.2,3,0.8c0.5,0.7,0.8,1.6,0.7,2.5c0,1.8-0.4,2.4-1.8,2.7
			c1.1,0.2,1.5,0.8,1.5,2.1v2.8h-1.3v-2.1c0-1.9-0.4-2.3-2.3-2.3h-7.5v4.4h-1.3L166.2,189.3z M174.7,194.8c2.2,0,2.8-0.4,2.8-2.2
			c0-1.7-0.6-2.2-2.9-2.2h-7.1v4.4L174.7,194.8z"/>
		<path id="Trazado_45" class="st1" d="M22.3,166.1l-0.1,0.2h-1.9l-8.2,11.7l-8.2-11.7h-2l-0.1-0.2v0.2H0v15.7h3.2v-11.3l7.9,11.3h2
			l7.9-11.3v11.3h3.2v-15.7h-1.7V166.1z"/>
		<path id="Trazado_46" class="st1" d="M44.2,166.2L35,181.9h3.6l1.9-3.2h10.8l1.9,3.2h3.6l-9.2-15.7H44.2z M42.1,175.9l3.8-6.4
			l3.8,6.4H42.1z"/>
		<path id="Trazado_47" class="st1" d="M75.3,176.3h7.6c-0.1,1.5-0.2,1.8-0.5,2.1c-0.5,0.5-1.1,0.7-6.5,0.7c-4.2,0-5-0.2-5.5-0.7
			c-0.4-0.4-0.5-1.4-0.5-4.4c0-3.4,0.2-4.2,0.7-4.6c0.6-0.4,1.9-0.5,7.2-0.5c3.8,0,4.2,0.1,4.7,0.6c0.2,0.2,0.3,0.3,0.3,1.6l0,0.7
			h3.1l0-0.7c-0.1-2.1-0.6-3.3-1.8-4c-1.2-0.9-2.7-1-7-1c-6.5,0-7.8,0.1-9.1,1.5c-1.1,1.2-1.3,2.6-1.3,6.5c0,3.9,0.2,5.3,1.3,6.5
			c1.3,1.4,2.7,1.5,8.6,1.5c4.4,0,5.8-0.1,6.8-0.5c1.5-0.6,2.3-1.9,2.5-4.1c0.1-1.1,0.1-2.2,0.1-3.3v-0.7H75.3V176.3z"/>
		<path id="Trazado_48" class="st1" d="M114.8,178.3l-12.4-12h-3.8v15.7h3.2v-12l12.4,12h3.8v-15.7h-3.2L114.8,178.3z"/>
		<path id="Trazado_49" class="st1" d="M147.3,178.3l-12.4-12h-3.8v15.7h3.2v-12l12.4,12h3.8v-15.7h-3.2L147.3,178.3z"/>
		<path id="Trazado_50" class="st1" d="M178.6,176.3c0,1.7,0,1.8-0.3,2.1c-0.4,0.5-1.6,0.7-5.7,0.7c-5.4,0-5.7-0.3-5.9-1.2
			c-0.1-0.5-0.1-1.1-0.1-1.6v-10.1h-3.2v10.4c0,0.6,0,1.2,0,1.7c0,0.9,0.4,1.7,1.1,2.3c1.1,1.1,2.8,1.4,8,1.4c6,0,8-0.4,8.9-2.7
			c0.2-0.9,0.3-1.8,0.2-2.7v-10.4h-3.2L178.6,176.3z"/>
		<path id="Trazado_51" class="st1" d="M209.8,173.2c-1.2-0.6-2.1-0.6-6.8-0.7c-3.9,0-4.5-0.1-5.1-0.3c-0.2-0.1-0.5-0.2-0.5-1.2
			c0-1.4,0-2,6-2c1.6,0,3.9,0.1,4.6,0.6c0.2,0.2,0.4,0.4,0.4,1.4l0,0.7h3.1l0-0.7c-0.1-1.9-0.4-3.1-1.8-4c-1.1-0.7-2.8-1-6.3-1
			c-2.1-0.1-4.2,0.1-6.2,0.6c-2,0.6-3,2.1-3,4.5c-0.2,1.3,0.4,2.6,1.5,3.4c1,0.7,2.2,0.9,5,0.9c6.3,0,6.3,0,7.1,0.3
			c0.6,0.2,0.8,0.3,0.8,1.3c0,1.5,0,2.1-5.9,2.1c-1.6,0.1-3.2,0-4.8-0.4c-0.4-0.1-0.7-0.2-0.7-1.6V176h-3.2v1.7
			c-0.1,1.7,0.9,3.2,2.5,3.8c1.3,0.4,3,0.6,6.5,0.6c3.4,0,5.1-0.2,6.2-0.6c1.7-0.6,2.5-2.1,2.5-4.3
			C211.8,175.8,211.6,174.1,209.8,173.2"/>
		<path id="Trazado_52" class="st1" d="M0.5,65v84.2h31V96L0.5,65z"/>
		<path id="Trazado_53" class="st1" d="M0.5,0v43.9l105.3,105.3l21.6-22.2L0.5,0z"/>
		<path id="Trazado_54" class="st1" d="M210.6,65v84.2h-31V96L210.6,65z"/>
		<path id="Trazado_55" class="st1" d="M210.5,0v43.9l-74,74.2l-22-22.1L210.5,0z"/>
		<rect id="Rectángulo_133" x="0.5" y="194.8" class="st1" width="28" height="0.2"/>
		<rect id="Rectángulo_134" x="182.6" y="194.8" class="st1" width="28" height="0.2"/>
	</g>
</g>
</svg>
