<?xml version="1.0" encoding="utf-8"?>
<!-- Generator: Adobe Illustrator 26.1.0, SVG Export Plug-In . SVG Version: 6.00 Build 0)  -->
<svg version="1.1" id="Capa_1" xmlns="http://www.w3.org/2000/svg" xmlns:xlink="http://www.w3.org/1999/xlink" x="0px" y="0px"
	 viewBox="0 0 334.6 119.3" style="enable-background:new 0 0 334.6 119.3;" xml:space="preserve">
<style type="text/css">
	.st0{opacity:0.3;}
	.st1{clip-path:url(#SVGID_00000134224576337660333750000003683005605473488571_);}
	.st2{clip-path:url(#SVGID_00000178890410550700590870000011501525638576592772_);}
	.st3{fill:url(#Rectángulo_54_00000137098330441457256960000007104578596382805889_);}
	.st4{clip-path:url(#SVGID_00000075870899735032381760000014865999866266497455_);}
	.st5{clip-path:url(#SVGID_00000174570386455345305960000002858042824029167526_);}
	.st6{fill:url(#Rectángulo_56_00000165196539205361446660000005637175758290391438_);}
	.st7{clip-path:url(#SVGID_00000030471901827082188420000002923366620550790016_);}
	.st8{clip-path:url(#SVGID_00000011009208304908187660000008484924273123114911_);}
	.st9{fill:url(#Rectángulo_58_00000127746899215585475910000013805986329544646816_);}
	.st10{clip-path:url(#SVGID_00000155844237515255206220000007231416794543074722_);}
	.st11{clip-path:url(#SVGID_00000178165801251296654320000008668276987102167978_);}
	.st12{fill:url(#Rectángulo_60_00000152260575439966764000000016399688316030571660_);}
	.st13{fill:#F3F0EA;}
	.st14{fill:none;}
	.st15{fill:#78ABAA;}
</style>
<g>
	<g id="Grupo_60_00000078040529848415864770000006065911579742072469_" transform="translate(8.576 0)" class="st0">
		<g id="Grupo_59_00000098184777438065444000000002114679733680679067_">
			<g>
				<defs>
					<rect id="SVGID_1_" x="12.8" y="3.4" width="44.8" height="108.7"/>
				</defs>
				<clipPath id="SVGID_00000001647214781297958270000004734819778372860601_">
					<use xlink:href="#SVGID_1_"  style="overflow:visible;"/>
				</clipPath>
				
					<g id="Grupo_58_00000130609620135641849870000000375639691261353348_" style="clip-path:url(#SVGID_00000001647214781297958270000004734819778372860601_);">
					<g id="Grupo_57_00000127040734486650569300000006719451328696009918_" transform="translate(0)">
						<g>
							<defs>
								<path id="SVGID_00000067207615588445179730000015627775306268615332_" d="M26.7,3.4C8.1,26.3,11,44.8,18.9,60
									c8.2,15.7,20.2,25.9,25,52l0,0c0,0,17.7-22.7,13-43.5C51,42.9,31,23.9,26.7,3.4"/>
							</defs>
							<clipPath id="SVGID_00000072257837743671562580000014505241607452309688_">
								<use xlink:href="#SVGID_00000067207615588445179730000015627775306268615332_"  style="overflow:visible;"/>
							</clipPath>
							
								<g id="Grupo_56_00000116917776523485444470000009912304838843856314_" style="clip-path:url(#SVGID_00000072257837743671562580000014505241607452309688_);">
								
									<linearGradient id="Rectángulo_54_00000108288024820223961540000000651217624468964736_" gradientUnits="userSpaceOnUse" x1="-7.5606" y1="632.0779" x2="-7.5265" y2="632.0779" gradientTransform="matrix(34.9883 -10.8812 -15.6356 -50.276 10142.6045 31766.127)">
									<stop  offset="0" style="stop-color:#69ADAB"/>
									<stop  offset="0.514" style="stop-color:#8EC0C2"/>
									<stop  offset="1" style="stop-color:#ADD1D6"/>
								</linearGradient>
								
									<polygon id="Rectángulo_54_00000031165753803016807990000015735175728618741176_" style="fill:url(#Rectángulo_54_00000108288024820223961540000000651217624468964736_);" points="
									-22.7,12.9 56.9,-11.8 92.4,102.5 12.9,127.2 								"/>
							</g>
						</g>
					</g>
				</g>
			</g>
		</g>
	</g>
	<g id="Grupo_65_00000173842024669098770400000003193725483072416699_" transform="translate(14.181 0)" class="st0">
		<g id="Grupo_64_00000069370827357784243880000009516145943968317609_">
			<g>
				<defs>
					<rect id="SVGID_00000183229193849528778600000012924750910862114974_" x="19.9" y="3.4" width="32.1" height="108.7"/>
				</defs>
				<clipPath id="SVGID_00000027571708346803286380000013449990010381272757_">
					<use xlink:href="#SVGID_00000183229193849528778600000012924750910862114974_"  style="overflow:visible;"/>
				</clipPath>
				
					<g id="Grupo_63_00000171702678716826577570000009518379713743729323_" style="clip-path:url(#SVGID_00000027571708346803286380000013449990010381272757_);">
					<g id="Grupo_62_00000008833873927799707920000015317064115097696651_" transform="translate(0)">
						<g>
							<defs>
								<path id="SVGID_00000107580362431236642720000014397202873788773773_" d="M21.1,3.4c-4.5,28,5.3,50.1,11.7,66.5
									c7.4,18.8,6.7,37.1,5.5,42.2l0,0c0,0,17.7-22.7,13-43.5C45.4,42.9,25.4,23.9,21.1,3.4"/>
							</defs>
							<clipPath id="SVGID_00000027584540783651362010000017116440633937922202_">
								<use xlink:href="#SVGID_00000107580362431236642720000014397202873788773773_"  style="overflow:visible;"/>
							</clipPath>
							
								<g id="Grupo_61_00000044861784804780796500000002571909107933055364_" style="clip-path:url(#SVGID_00000027584540783651362010000017116440633937922202_);">
								
									<linearGradient id="Rectángulo_56_00000083797255372251666640000015844249190487113105_" gradientUnits="userSpaceOnUse" x1="-14.1741" y1="631.8588" x2="-14.14" y2="631.8588" gradientTransform="matrix(33.2173 -17.264 -23.2681 -44.7696 15166.0781 28123.5078)">
									<stop  offset="0" style="stop-color:#CFE3E9"/>
									<stop  offset="2.900000e-02" style="stop-color:#CFE3E9"/>
									<stop  offset="0.982" style="stop-color:#69ADAB"/>
									<stop  offset="1" style="stop-color:#69ADAB"/>
								</linearGradient>
								
									<polygon id="Rectángulo_56_00000096019477157700768840000010745168381686892206_" style="fill:url(#Rectángulo_56_00000083797255372251666640000015844249190487113105_);" points="
									-28,26.5 47.6,-12.8 100.5,89 24.9,128.3 								"/>
							</g>
						</g>
					</g>
				</g>
			</g>
		</g>
	</g>
	<g id="Grupo_70_00000137816106933192778460000001679269996595421887_" transform="translate(0 24.17)" class="st0">
		<g id="Grupo_69_00000134971092823884418160000006083326248283423664_">
			<g>
				<defs>
					<rect id="SVGID_00000149378162790930305060000010148839725860186301_" x="1.9" y="34.1" width="44" height="57.6"/>
				</defs>
				<clipPath id="SVGID_00000114785639778052084300000008124160995460876163_">
					<use xlink:href="#SVGID_00000149378162790930305060000010148839725860186301_"  style="overflow:visible;"/>
				</clipPath>
				
					<g id="Grupo_68_00000155109848033326849710000018241203331720583096_" style="clip-path:url(#SVGID_00000114785639778052084300000008124160995460876163_);">
					<g id="Grupo_67_00000003783153587718887180000002583336654887402881_" transform="translate(0 0)">
						<g>
							<defs>
								<path id="SVGID_00000160906269237006359570000014188401421333180032_" d="M2.9,34.1c-3.8,18.8,3.3,28.6,12.4,35
									c9.4,6.6,19.4,8.9,29.9,22.6c0,0-0.1-0.1,0,0l0,0c0,0,3.4-18.4-5.5-28.9C28.7,49.7,11.6,44.7,2.9,34.1"/>
							</defs>
							<clipPath id="SVGID_00000063608113455960460670000007645910331237825678_">
								<use xlink:href="#SVGID_00000160906269237006359570000014188401421333180032_"  style="overflow:visible;"/>
							</clipPath>
							
								<g id="Grupo_66_00000033366673800550748320000006368170866871012790_" style="clip-path:url(#SVGID_00000063608113455960460670000007645910331237825678_);">
								
									<linearGradient id="Rectángulo_58_00000056409923610295319930000010470760938318149001_" gradientUnits="userSpaceOnUse" x1="-1.771" y1="605.9812" x2="-1.7323" y2="605.9812" gradientTransform="matrix(23.7269 -23.3921 -23.4167 -23.7518 14240.2891 14430.124)">
									<stop  offset="0" style="stop-color:#69ADAB"/>
									<stop  offset="0.514" style="stop-color:#8EC0C2"/>
									<stop  offset="1" style="stop-color:#ADD1D6"/>
								</linearGradient>
								
									<polygon id="Rectángulo_58_00000060726691812353424120000006192570648119579777_" style="fill:url(#Rectángulo_58_00000056409923610295319930000010470760938318149001_);" points="
									-29.7,62.5 24.2,9.3 77.5,63.4 23.5,116.5 								"/>
							</g>
						</g>
					</g>
				</g>
			</g>
		</g>
	</g>
	<g id="Grupo_75_00000172432275146212578460000002339141101142852752_" transform="translate(0.466 24.17)" class="st0">
		<g id="Grupo_74_00000006695989888902213650000017951198597113216133_">
			<g>
				<defs>
					<rect id="SVGID_00000000930571574398911950000004402490188191846042_" x="2.5" y="34.1" width="43" height="57.6"/>
				</defs>
				<clipPath id="SVGID_00000052819443387777950210000008622531676815555460_">
					<use xlink:href="#SVGID_00000000930571574398911950000004402490188191846042_"  style="overflow:visible;"/>
				</clipPath>
				
					<g id="Grupo_73_00000056419827018479503270000012183608117254928820_" style="clip-path:url(#SVGID_00000052819443387777950210000008622531676815555460_);">
					<g id="Grupo_72_00000041269372884967805690000016386808700716636047_" transform="translate(0 0)">
						<g>
							<defs>
								<path id="SVGID_00000078008352162466931810000000027093880278679727_" d="M2.5,34.1C8.2,51.6,20.5,61.5,29,69
									c7.1,6.1,12.5,13.9,15.7,22.7l0,0c0,0,3.4-18.4-5.5-28.9C28.3,49.7,11.1,44.7,2.5,34.1"/>
							</defs>
							<clipPath id="SVGID_00000037673363989106024940000004552562191010042523_">
								<use xlink:href="#SVGID_00000078008352162466931810000000027093880278679727_"  style="overflow:visible;"/>
							</clipPath>
							
								<g id="Grupo_71_00000013160662439684846070000004620707175840870329_" style="clip-path:url(#SVGID_00000037673363989106024940000004552562191010042523_);">
								
									<linearGradient id="Rectángulo_60_00000015315762652979299990000017399177493315363245_" gradientUnits="userSpaceOnUse" x1="-3.356" y1="606.1296" x2="-3.3151" y2="606.1296" gradientTransform="matrix(18.6492 -26.4063 -25.3785 -17.9234 15456.7529 10857.8057)">
									<stop  offset="0" style="stop-color:#CFE3E9"/>
									<stop  offset="2.900000e-02" style="stop-color:#CFE3E9"/>
									<stop  offset="0.982" style="stop-color:#69ADAB"/>
									<stop  offset="1" style="stop-color:#69ADAB"/>
								</linearGradient>
								
									<polygon id="Rectángulo_60_00000086676635324626190720000008125333752271104155_" style="fill:url(#Rectángulo_60_00000015315762652979299990000017399177493315363245_);" points="
									-24.7,72.6 17.7,12.6 75.4,53.3 33,113.4 								"/>
							</g>
						</g>
					</g>
				</g>
			</g>
		</g>
	</g>
	<path id="Trazado_102_00000052082084151832996980000010634917377452470146_" class="st13" d="M107.3,109.6L107.3,109.6
		c-1.7,0-3.1,1.4-3.1,3.1c0,1.7,1.4,3.1,3.1,3.1c1.7,0,3.1-1.4,3.1-3.1c0,0,0,0,0,0C110.4,111,109,109.6,107.3,109.6"/>
	<path id="Trazado_103_00000137825134807701276350000016424272381293715886_" class="st13" d="M260.8,109.6L260.8,109.6
		c-1.7,0-3.1,1.4-3.1,3.1s1.4,3.1,3.1,3.1c1.7,0,3.1-1.4,3.1-3.1c0,0,0,0,0,0C263.9,111,262.5,109.6,260.8,109.6"/>
	<path id="Trazado_104_00000134216711087208214000000008211830057726132366_" class="st13" d="M34.7,50.4h5.5l27.1,27.1l27.1-27.1
		h5.5L69.1,81.2v34.4h-3.7V81.2L34.7,50.4z"/>
	<path id="Trazado_105_00000147899256864921277480000010037145010268557461_" class="st13" d="M124.4,115.9V77.5L86,115.9h-5.5
		l47.5-47.5v47.5H124.4z"/>
	<path id="Trazado_106_00000033339756914685373490000013183727697615073160_" class="st13" d="M175.6,115.9V77.5l-38.4,38.4h-5.5
		l47.5-47.5v47.5H175.6z"/>
	<path id="Trazado_107_00000171704332729767738660000000756818013508181439_" class="st13" d="M186.5,115.9h-3.7V68.4l23.7,23.8
		l23.8-23.8v47.5h-3.7V77.5l-20.1,20.1l-20.1-20.1L186.5,115.9z"/>
	<path id="Trazado_108_00000168102628434834086380000013822613511500106629_" class="st13" d="M277.9,115.9V77.5l-38.4,38.4H234
		l47.5-47.5v47.5H277.9z"/>
	<path id="Trazado_109_00000159447688777898142650000009791765512871842459_" class="st13" d="M288.8,92.1
		c0,13.4,6.7,20.1,20.1,20.1c13.4,0,20.1-6.7,20.1-20.1V68.4h3.7v23.8c0,15.8-7.9,23.8-23.8,23.8c-15.8,0-23.8-7.9-23.8-23.8H288.8z
		"/>
	<path id="Trazado_110_00000154399794844019473370000005920912695461562497_" class="st13" d="M191.3,51.4c0.9,0.7,1.5,1.6,1.8,2.6
		H192c-0.3-0.8-0.8-1.4-1.4-1.9c-0.7-0.5-1.6-0.7-2.5-0.7c-1.5,0-2.9,0.8-3.5,2.2c-0.4,0.8-0.5,1.6-0.5,2.4c0,0.8,0.2,1.7,0.5,2.4
		c0.7,1.3,2,2.2,3.5,2.2c0.9,0,1.8-0.2,2.5-0.7c0.7-0.5,1.2-1.1,1.4-1.9h1.2c-0.3,1.1-0.9,2-1.8,2.6c-1,0.7-2.1,1-3.3,1
		c-0.9,0-1.9-0.2-2.7-0.7c-0.8-0.5-1.4-1.2-1.8-2c-0.4-0.9-0.7-1.9-0.7-2.9c0-1,0.2-2,0.7-2.9c0.4-0.8,1-1.5,1.8-2
		c0.8-0.5,1.7-0.7,2.7-0.7C189.2,50.4,190.3,50.7,191.3,51.4"/>
	<path id="Trazado_111_00000147184655052471515000000007962657766107527349_" class="st13" d="M208.9,51.2c0.8,0.5,1.5,1.2,1.9,2
		c0.9,1.8,0.9,4,0,5.8c-0.4,0.8-1.1,1.5-1.9,2c-1.7,0.9-3.8,0.9-5.5,0c-0.8-0.5-1.5-1.2-1.9-2c-0.9-1.8-0.9-4,0-5.8
		c0.4-0.8,1.1-1.5,1.9-2C205.1,50.2,207.2,50.2,208.9,51.2 M204,52c-0.6,0.4-1.2,0.9-1.5,1.6c-0.7,1.5-0.7,3.3,0,4.8
		c0.3,0.7,0.9,1.2,1.5,1.6c1.3,0.7,3,0.7,4.3,0c0.6-0.4,1.2-0.9,1.5-1.6c0.7-1.5,0.7-3.3,0-4.8c-0.3-0.7-0.9-1.2-1.5-1.6
		C207,51.3,205.3,51.3,204,52"/>
	<path id="Trazado_112_00000000216347797084687250000007210805964219250306_" class="st13" d="M227.4,61.5h-1.1l-6-9.1v9.1h-1.1
		V50.6h1.1l6,9.2v-9.2h1.1V61.5z"/>
	<path id="Trazado_113_00000047040816630037108600000016804953156283574426_" class="st13" d="M243.5,59c-0.4,0.8-1.1,1.5-2,1.9
		c-1,0.5-2,0.7-3.1,0.7h-3.3v-11h3.3c1.6-0.1,3.1,0.4,4.3,1.5c1,1.1,1.6,2.5,1.5,4C244.2,57.1,244,58.1,243.5,59 M241.9,59.4
		c1.6-1.9,1.6-4.7,0-6.6c-1-0.9-2.2-1.3-3.5-1.2h-2.1v9h2.1C239.6,60.6,240.9,60.2,241.9,59.4"/>
	<path id="Trazado_114_00000132049313898676078500000002735866835649432741_" class="st13" d="M259.9,51.2c0.8,0.5,1.5,1.2,1.9,2
		c0.9,1.8,0.9,4,0,5.8c-0.4,0.8-1.1,1.5-1.9,2c-1.7,1-3.8,1-5.5,0c-0.8-0.5-1.5-1.2-1.9-2c-0.9-1.8-0.9-4,0-5.8
		c0.4-0.8,1.1-1.5,1.9-2C256.1,50.2,258.2,50.2,259.9,51.2 M255,52c-0.6,0.4-1.2,0.9-1.5,1.6c-0.7,1.5-0.7,3.3,0,4.8
		c0.3,0.7,0.9,1.2,1.5,1.6c1.3,0.7,3,0.7,4.3,0c0.6-0.4,1.2-0.9,1.5-1.6c0.7-1.5,0.7-3.3,0-4.8c-0.3-0.7-0.9-1.2-1.5-1.6
		C258,51.3,256.4,51.3,255,52"/>
	<path id="Trazado_115_00000064336458726184398240000004823973406608794810_" class="st13" d="M280.8,50.8v10.7h-1.1v-9l-3.7,9h-1
		l-3.7-8.9v8.9h-1.1V50.8h1.3l4,9.4l4-9.4H280.8z"/>
	
		<rect id="Rectángulo_62_00000008150715428970602550000007069797406952002717_" x="288.5" y="50.6" class="st13" width="1.1" height="10.9"/>
	<path id="Trazado_116_00000002362048040993520750000004907167379965748136_" class="st13" d="M305.5,61.5h-1.1l-6-9.1v9.1h-1.1
		V50.6h1.1l6,9.2v-9.2h1.1V61.5z"/>
	
		<rect id="Rectángulo_63_00000089536193907340232920000015562740417774237346_" x="313.2" y="50.6" class="st13" width="1.1" height="10.9"/>
	<path id="Trazado_117_00000158027872697897256910000010962349463366000033_" class="st13" d="M330.1,51.2c0.8,0.5,1.5,1.2,1.9,2
		c0.9,1.8,0.9,4,0,5.8c-0.4,0.8-1.1,1.5-1.9,2c-1.7,1-3.8,1-5.5,0c-0.8-0.5-1.5-1.2-1.9-2c-0.9-1.8-0.9-4,0-5.8
		c0.4-0.8,1.1-1.5,1.9-2C326.3,50.2,328.4,50.2,330.1,51.2 M325.2,52c-0.6,0.4-1.2,0.9-1.5,1.6c-0.7,1.5-0.7,3.3,0,4.8
		c0.3,0.7,0.9,1.2,1.5,1.6c1.3,0.7,3,0.7,4.3,0c0.6-0.4,1.2-0.9,1.5-1.6c0.7-1.5,0.7-3.3,0-4.8c-0.3-0.7-0.9-1.2-1.5-1.6
		C328.2,51.3,326.5,51.3,325.2,52"/>
</g>
</svg>
