<svg id="Grupo_443" data-name="Grupo 443" xmlns="http://www.w3.org/2000/svg" xmlns:xlink="http://www.w3.org/1999/xlink" width="212.268" height="64.314" viewBox="0 0 212.268 64.314">
  <defs>
    <clipPath id="clip-path">
      <rect id="Rectángulo_191" data-name="Rectángulo 191" width="212.268" height="64.314" fill="none"/>
    </clipPath>
  </defs>
  <g id="Grupo_442" data-name="Grupo 442" clip-path="url(#clip-path)">
    <path id="Trazado_2045" data-name="Trazado 2045" d="M21.611,0c1.857,1.611,3.637,3.153,5.414,4.7,2.561,2.227,5.117,4.463,7.689,6.679a1.356,1.356,0,0,1,.542,1.142q-.024,19.941-.007,39.881a1.1,1.1,0,0,1-.378.973Q28.352,58.725,21.855,64.1a2.117,2.117,0,0,1-.307.155v-.892c0-7.483.02-14.966-.014-22.448a7.087,7.087,0,0,1,1.913-4.907,8.3,8.3,0,0,1,5.78-2.819,3.948,3.948,0,0,0,.632-.052,1.007,1.007,0,0,0,.883-1.063.967.967,0,0,0-.867-.988c-.627-.1-1.267-.134-1.886-.27a8.053,8.053,0,0,1-6.386-6.25,2.155,2.155,0,0,1-.053-.552q0-11.862,0-23.722A2.331,2.331,0,0,1,21.611,0" transform="translate(5.216 0)" fill="#0097d6"/>
    <path id="Trazado_2046" data-name="Trazado 2046" d="M22.2.075a1.717,1.717,0,0,1,.1.9q.007,10.7,0,21.411a8.244,8.244,0,0,1-7.756,8.575c-1.186.118-1.64.43-1.635,1.123,0,.677.461.983,1.643,1.1A8.316,8.316,0,0,1,22.3,41.716q.006,10.824,0,21.65V64.3c-1.43-1.179-2.73-2.25-4.03-3.323-3.026-2.5-6.046-5.007-9.085-7.492a1.309,1.309,0,0,1-.525-1.145q.019-19.9.009-39.8a1.2,1.2,0,0,1,.364-1.065Q15.506,5.884,21.952.263C22.024.2,22.1.148,22.2.075" transform="translate(2.097 0.018)" fill="#0097d6"/>
    <path id="Trazado_2047" data-name="Trazado 2047" d="M9.177,10.312V49.805c-.293.078-.45-.19-.643-.337C5.845,47.443,3.169,45.4.47,43.383A1.081,1.081,0,0,1,0,42.391Q.015,30.33.009,18.27c0-.308-.056-.609.261-.86,2.929-2.319,5.846-4.655,8.908-7.1" transform="translate(0 2.497)" fill="#0073a6"/>
    <path id="Trazado_2048" data-name="Trazado 2048" d="M33.779,10.341c.334.252.581.43.819.619,2.594,2.065,5.18,4.139,7.785,6.191a1.355,1.355,0,0,1,.576,1.195q-.028,11.979,0,23.96a1.217,1.217,0,0,1-.535,1.122c-2.682,1.994-5.335,4.025-8,6.038a1.142,1.142,0,0,1-.641.358Z" transform="translate(8.181 2.504)" fill="#0073a6"/>
    <path id="Trazado_2049" data-name="Trazado 2049" d="M128.169,33.579h.889c5.625,0,11.251.011,16.877-.016.614,0,.745.165.729.747-.045,1.511-.067,3.027,0,4.535.038.783-.26.878-.932.877-9.447-.02-18.894-.011-28.341-.022-.284,0-.692.194-.843-.179a1.073,1.073,0,0,1,.266-1.022c1.046-1.468,2.068-2.953,3.1-4.43l15.473-22.16c.086-.123.163-.252.258-.4a1.723,1.723,0,0,0-.893-.091c-5.334,0-10.668-.015-16,.011-.631,0-.8-.164-.786-.79.046-1.565.031-3.132.006-4.7-.009-.475.114-.641.615-.641q14.051.02,28.1.012c.656,0,.842.476.41,1.132-.584.883-1.209,1.742-1.815,2.61q-8.333,11.925-16.664,23.852c-.132.188-.257.38-.453.672" transform="translate(28.217 1.283)" fill="#171c20"/>
    <path id="Trazado_2050" data-name="Trazado 2050" d="M105.008,25.385c0-4.512-.014-9.023.016-13.536,0-.6-.154-.739-.742-.732-2.786.034-5.574,0-8.36.027-.583,0-.832-.086-.806-.758.057-1.511.032-3.026.009-4.538-.007-.443.116-.591.576-.591q12.581.019,25.161,0c.427,0,.617.086.61.565-.026,1.591-.03,3.185,0,4.776.01.5-.207.54-.61.538-2.786-.012-5.574.026-8.359-.027-.765-.015-.879.236-.878.92.022,8.944,0,17.888.032,26.832,0,.713-.18.894-.878.872-1.643-.053-3.292-.061-4.935,0-.739.027-.858-.227-.853-.9.029-4.484.015-8.97.015-13.456" transform="translate(23.037 1.273)" fill="#171c20"/>
    <path id="Trazado_2051" data-name="Trazado 2051" d="M61.8,22.447c0-5.466.01-10.933-.014-16.4,0-.619.142-.814.783-.8q2.545.071,5.094,0c.635-.017.788.168.785.791-.02,8.969,0,17.939-.032,26.907,0,.763.174.956.947.95,5.493-.037,10.985-.011,16.478-.032.591,0,.819.1.794.759-.056,1.484-.043,2.973,0,4.457.015.54-.165.646-.667.645q-11.743-.022-23.484,0c-.58,0-.692-.2-.691-.729.017-5.519.011-11.038.011-16.557" transform="translate(14.965 1.272)" fill="#171c20"/>
    <path id="Trazado_2052" data-name="Trazado 2052" d="M92.441,22.6c0,5.437-.014,10.873.017,16.31,0,.682-.186.831-.835.812-1.7-.047-3.394-.03-5.092-.007-.477.006-.687-.065-.686-.631q.028-16.587,0-33.177c0-.507.158-.615.63-.607,1.75.026,3.5.041,5.251-.006.624-.017.728.189.725.758-.021,5.517-.012,11.032-.012,16.549" transform="translate(20.792 1.282)" fill="#171c20"/>
    <path id="Trazado_2053" data-name="Trazado 2053" d="M83.079,44.2c0-.981.015-1.964-.007-2.945-.009-.416.07-.631.559-.619,1.166.031,2.335.025,3.5,0,.41-.009.552.111.554.534,0,.46-.261.434-.565.431-.822,0-1.645.015-2.467-.007-.409-.011-.543.129-.563.544-.072,1.507-.088,1.506,1.4,1.506.478,0,.956.017,1.432,0,.36-.017.529.077.527.479s-.149.5-.518.489c-.743-.022-1.487.01-2.229-.014-.411-.014-.607.061-.621.549-.048,1.687-.07,1.687,1.627,1.687.558,0,1.116.012,1.672,0,.322-.01.482.065.479.434s-.118.514-.5.508q-1.871-.028-3.742,0c-.414.007-.56-.125-.55-.545.024-1.007.007-2.016.007-3.025" transform="translate(20.12 9.843)" fill="#0399d7"/>
    <path id="Trazado_2054" data-name="Trazado 2054" d="M112.8,44.2c0-1.007.017-2.015-.009-3.022-.01-.421.133-.547.547-.538,1.166.024,2.333.02,3.5,0,.394-.006.571.091.566.529s-.266.435-.571.434c-.848,0-1.7.012-2.545-.006-.37-.009-.493.116-.517.5-.093,1.554-.107,1.554,1.434,1.554.477,0,.955.02,1.431-.006.383-.022.5.116.5.5,0,.412-.179.479-.527.471-.742-.019-1.486.012-2.227-.012-.412-.014-.6.06-.616.552-.037,1.686-.06,1.686,1.624,1.686.583,0,1.166.017,1.749-.006.355-.014.452.125.446.461s-.075.484-.441.479c-1.3-.015-2.6-.02-3.9,0-.436.007-.453-.224-.451-.548.01-1.007,0-2.015,0-3.022" transform="translate(27.319 9.843)" fill="#0198d6"/>
    <path id="Trazado_2055" data-name="Trazado 2055" d="M151.5,44.208c0-1.006.015-2.014-.007-3.02-.009-.414.129-.553.547-.544,1.165.022,2.33.016,3.5,0,.349,0,.533.07.549.472.019.478-.241.5-.6.492-.821-.014-1.642.014-2.463-.012-.406-.012-.54.107-.554.532-.05,1.523-.068,1.522,1.452,1.522.4,0,.8-.006,1.191,0,.343.007.744-.143.73.5-.012.594-.384.447-.694.451-.716.011-1.432.027-2.145,0-.429-.02-.523.134-.534.542-.043,1.7-.058,1.7,1.594,1.7.557,0,1.113.006,1.67,0,.313,0,.554-.006.558.441,0,.473-.24.5-.6.5-1.219-.011-2.437-.019-3.656,0-.417.007-.553-.135-.544-.547.022-1.006.007-2.014.007-3.02" transform="translate(36.692 9.844)" fill="#0198d6"/>
    <path id="Trazado_2056" data-name="Trazado 2056" d="M123.072,40.519a2.822,2.822,0,0,1,1.379.308c.235.137.711.26.466.646-.2.318-.483.79-1.038.266a1.365,1.365,0,0,0-1.5-.158.97.97,0,0,0-.673.893.923.923,0,0,0,.512.914,6.53,6.53,0,0,0,1.338.487c1.154.365,1.615.956,1.583,1.983a2.069,2.069,0,0,1-1.786,2.026,3.046,3.046,0,0,1-2.5-.463c-.215-.144-.594-.338-.2-.657.229-.184.379-.667.865-.206a1.6,1.6,0,0,0,2.042.209.931.931,0,0,0-.092-1.7,7.781,7.781,0,0,0-1.108-.424c-1.319-.445-1.888-1.234-1.713-2.394a2.224,2.224,0,0,1,2.422-1.728" transform="translate(29.181 9.813)" fill="#0198d6"/>
    <path id="Trazado_2057" data-name="Trazado 2057" d="M145.83,40.651c.77,0,1.539.01,2.309,0,.332-.006.473.1.48.453.006.37-.107.554-.494.511a1.91,1.91,0,0,0-.239,0c-1.548.019-1.548.019-1.548,1.534,0,1.327,0,2.655,0,3.981,0,.373,0,.658-.527.661-.552,0-.5-.317-.5-.672,0-1.593-.029-3.186.017-4.778.017-.617-.184-.806-.765-.734a9.068,9.068,0,0,1-.955.009c-.306.006-.565.025-.563-.432,0-.426.145-.549.554-.534.743.027,1.487.007,2.23.007" transform="translate(34.646 9.843)" fill="#0599d7"/>
    <path id="Trazado_2058" data-name="Trazado 2058" d="M130.166,44.615c0-.822-.017-1.645.007-2.466.011-.4-.1-.585-.532-.55-.4.032-.8,0-1.193.009-.325.011-.548-.014-.55-.45s.2-.518.579-.514q2.188.024,4.375,0c.37,0,.593.047.6.5.006.511-.307.451-.629.46-1.677.041-1.677.043-1.677,1.708,0,1.3-.01,2.6.006,3.9,0,.391-.086.57-.527.566-.421,0-.47-.2-.465-.539.015-.875,0-1.75,0-2.625" transform="translate(30.978 9.844)" fill="#0198d6"/>
    <path id="Trazado_2059" data-name="Trazado 2059" d="M100,44.14c0-.9-.007-1.8,0-2.7,0-.363-.165-.817.524-.8s.487.5.492.84c.017,1.537.031,3.074,0,4.61-.014.568.1.819.73.763.684-.058,1.378,0,2.066-.019.354-.01.453.134.45.468s-.1.481-.453.476c-1.113-.012-2.226-.017-3.338,0-.412.007-.478-.191-.475-.538.014-1.032,0-2.066,0-3.1" transform="translate(24.218 9.842)" fill="#089bd7"/>
    <path id="Trazado_2060" data-name="Trazado 2060" d="M78.413,45.126c-.281-.415-.253-.56.239-.764a1.819,1.819,0,0,0,1.091-2.081,1.755,1.755,0,0,0-1.509-1.524,16.1,16.1,0,0,0-2.853-.1c-.34-.014-.38.194-.38.462,0,2.068.007,4.137,0,6.2,0,.35.137.458.471.457s.569-.042.558-.461c-.017-.609-.031-1.221.009-1.829.019-.292-.24-.729.3-.846a.833.833,0,0,1,1,.55c.311.612.723,1.176,1.007,1.8a1.2,1.2,0,0,0,1.666.691c-.538-.867-1.04-1.729-1.6-2.555M76.88,43.809c-1.088.078-.851-.6-.85-1.287-.111-.591-.058-1.051.876-.986,1.307.089,1.8.332,1.795,1.145s-.511,1.034-1.821,1.128" transform="translate(18.165 9.843)" fill="#0298d6"/>
    <path id="Trazado_2061" data-name="Trazado 2061" d="M94.658,41.165c-.133-.317-.257-.528-.668-.527s-.528.229-.662.538c-.857,1.966-1.733,3.925-2.592,5.889-.091.206-.267.4-.184.658.993.084,1.1.1,1.188-.376.237-1.251,1.022-1.494,2.115-1.337a2.7,2.7,0,0,0,.794,0,.992.992,0,0,1,1.308.876c.148.755.6,1.075,1.491.8-.939-2.195-1.872-4.355-2.789-6.523m.153,3.946c-.681,0-1.361,0-2.142,0,.427-1.047.815-1.995,1.276-3.122.419,1.021.786,1.9,1.142,2.792.1.241-.043.332-.276.33" transform="translate(21.927 9.842)" fill="#0198d6"/>
    <path id="Trazado_2062" data-name="Trazado 2062" d="M139.017,40.964c-.14-.33-.381-.3-.647-.317-.333-.024-.45.173-.565.44-.555,1.288-1.128,2.569-1.693,3.853l-1.248,2.84c.559-.1,1.185.267,1.317-.432.237-1.257,1.022-1.494,2.114-1.339a2.334,2.334,0,0,0,.714,0,1.068,1.068,0,0,1,1.419.935c.157.781.641,1.015,1.456.72-.959-2.236-1.922-4.463-2.866-6.7m-1.524,4.146c-.234,0-.364-.062-.256-.322.371-.9.744-1.791,1.164-2.8.441,1.087.826,2.036,1.266,3.122-.783,0-1.478,0-2.174,0" transform="translate(32.664 9.844)" fill="#0198d6"/>
    <path id="Trazado_2063" data-name="Trazado 2063" d="M177.554,38.912q-2.059-4.028-4.12-8.056Q167.076,18.417,160.712,5.98c-.143-.279-.2-.663-.673-.678s-.542.357-.689.645q-2.737,5.333-5.463,10.669-5.773,11.267-11.551,22.531c-.23.45-.157.574.357.569,2.016-.021,4.035-.025,6.051,0a.789.789,0,0,0,.815-.576c.681-1.434,1.4-2.847,2.077-4.283a.837.837,0,0,1,.886-.579q7.485.03,14.97,0a.784.784,0,0,1,.841.518c.691,1.46,1.426,2.9,2.148,4.343.124.25.175.566.569.565,2.251,0,4.5,0,6.774,0a1.374,1.374,0,0,0-.267-.793M154.776,27.287l4.969-9.938,4.969,9.938Z" transform="translate(34.444 1.284)" fill="#171c20"/>
  </g>
</svg>
